<?xml version="1.0" encoding="UTF-8"?>
<svg width="180px" height="180px" viewBox="0 0 180 180" version="1.1" xmlns="http://www.w3.org/2000/svg" xmlns:xlink="http://www.w3.org/1999/xlink">
    <!-- Generator: Sketch 53.2 (72643) - https://sketchapp.com -->
    <title>Icon 1B</title>
    <desc>Created with Sketch.</desc>
    <defs>
        <path d="M91.6653922,159.865 C101.555865,159.865 133.395523,159.804353 141.917986,156.155519 C166.564678,145.603206 164.030793,119.286132 161.363871,90.479154 C157.835448,52.3666059 130.158799,20 91.6653922,20 C53.1719853,20 24.1104377,52.1299786 19.7955905,90.479154 C16.7548536,117.504388 14.929818,144.722079 37.2288891,156.155519 C46.8541841,161.090712 80.0595111,159.865 91.6653922,159.865 Z" id="path-1"></path>
        <filter x="-15.9%" y="-10.7%" width="131.7%" height="132.9%" filterUnits="objectBoundingBox" id="filter-2">
            <feMorphology radius="1" operator="dilate" in="SourceAlpha" result="shadowSpreadOuter1"></feMorphology>
            <feOffset dx="0" dy="8" in="shadowSpreadOuter1" result="shadowOffsetOuter1"></feOffset>
            <feGaussianBlur stdDeviation="6" in="shadowOffsetOuter1" result="shadowBlurOuter1"></feGaussianBlur>
            <feComposite in="shadowBlurOuter1" in2="SourceAlpha" operator="out" result="shadowBlurOuter1"></feComposite>
            <feColorMatrix values="0 0 0 0 0.584415095   0 0 0 0 0.669517178   0 0 0 0 0.843976449  0 0 0 0.387183129 0" type="matrix" in="shadowBlurOuter1"></feColorMatrix>
        </filter>
        <filter x="-18.3%" y="-13.2%" width="136.5%" height="137.9%" filterUnits="objectBoundingBox" id="filter-3">
            <feGaussianBlur stdDeviation="8" in="SourceAlpha" result="shadowBlurInner1"></feGaussianBlur>
            <feOffset dx="0" dy="-11" in="shadowBlurInner1" result="shadowOffsetInner1"></feOffset>
            <feComposite in="shadowOffsetInner1" in2="SourceAlpha" operator="arithmetic" k2="-1" k3="1" result="shadowInnerInner1"></feComposite>
            <feColorMatrix values="0 0 0 0 0.569153628   0 0 0 0 0.669449689   0 0 0 0 0.875056612  0 0 0 0.333752185 0" type="matrix" in="shadowInnerInner1" result="shadowMatrixInner1"></feColorMatrix>
            <feGaussianBlur stdDeviation="5" in="SourceAlpha" result="shadowBlurInner2"></feGaussianBlur>
            <feOffset dx="0" dy="13" in="shadowBlurInner2" result="shadowOffsetInner2"></feOffset>
            <feComposite in="shadowOffsetInner2" in2="SourceAlpha" operator="arithmetic" k2="-1" k3="1" result="shadowInnerInner2"></feComposite>
            <feColorMatrix values="0 0 0 0 0.470297142   0 0 0 0 0.569037774   0 0 0 0 0.771456069  0 0 0 1 0" type="matrix" in="shadowInnerInner2" result="shadowMatrixInner2"></feColorMatrix>
            <feMerge>
                <feMergeNode in="shadowMatrixInner1"></feMergeNode>
                <feMergeNode in="shadowMatrixInner2"></feMergeNode>
            </feMerge>
        </filter>
        <path d="M89.6995389,120 C98.6617552,120 102.743857,100.48123 105.927067,76.4036079 C107.626843,63.5465994 107.564645,52.4073252 103.848327,46.3394046 C100.605008,41.0437874 94.0863463,40 89.9097891,40 C85.6115248,40 79.0421563,42.3655358 75.89803,47.9724897 C72.4864077,54.0564721 72.7042989,63.8735737 73.472011,76.4036079 C74.9472408,100.48123 80.7373227,120 89.6995389,120 Z" id="path-4"></path>
        <filter x="-14.7%" y="-6.2%" width="129.4%" height="112.5%" filterUnits="objectBoundingBox" id="filter-5">
            <feGaussianBlur stdDeviation="3" in="SourceAlpha" result="shadowBlurInner1"></feGaussianBlur>
            <feOffset dx="4" dy="2" in="shadowBlurInner1" result="shadowOffsetInner1"></feOffset>
            <feComposite in="shadowOffsetInner1" in2="SourceAlpha" operator="arithmetic" k2="-1" k3="1" result="shadowInnerInner1"></feComposite>
            <feColorMatrix values="0 0 0 0 0.0554622274   0 0 0 0 0.205676337   0 0 0 0 0.513615263  0 0 0 0.668597028 0" type="matrix" in="shadowInnerInner1"></feColorMatrix>
        </filter>
        <ellipse id="path-6" cx="90" cy="134.5" rx="11" ry="9.5"></ellipse>
        <filter x="-22.7%" y="-26.3%" width="145.5%" height="152.6%" filterUnits="objectBoundingBox" id="filter-7">
            <feGaussianBlur stdDeviation="3" in="SourceAlpha" result="shadowBlurInner1"></feGaussianBlur>
            <feOffset dx="4" dy="2" in="shadowBlurInner1" result="shadowOffsetInner1"></feOffset>
            <feComposite in="shadowOffsetInner1" in2="SourceAlpha" operator="arithmetic" k2="-1" k3="1" result="shadowInnerInner1"></feComposite>
            <feColorMatrix values="0 0 0 0 0.0549019608   0 0 0 0 0.203921569   0 0 0 0 0.51372549  0 0 0 0.532288024 0" type="matrix" in="shadowInnerInner1"></feColorMatrix>
        </filter>
    </defs>
    <g id="Icon-1B" stroke="none" stroke-width="1" fill="none" fill-rule="evenodd">
        <rect id="Rectangle" fill="#142B5B" x="0" y="0" width="180" height="180" rx="30"></rect>
        <g id="Oval" stroke-linecap="round" stroke-linejoin="round">
            <use fill="black" fill-opacity="1" filter="url(#filter-2)" xlink:href="#path-1"></use>
            <use fill="#142B5B" fill-rule="evenodd" xlink:href="#path-1"></use>
            <use fill="black" fill-opacity="1" filter="url(#filter-3)" xlink:href="#path-1"></use>
            <path stroke="#C2D6FF" stroke-width="1" d="M91.6653922,160.365 C90.1282388,160.365 90.1499227,160.364777 84.3158651,160.432466 C76.1763616,160.526904 70.857206,160.532895 65.1343768,160.398171 C51.2095921,160.070361 41.5466621,158.93127 37.0007621,156.600444 C26.4661507,151.199015 20.6775408,142.107417 18.5167237,129.247109 C16.8392505,119.263468 17.2449808,108.676369 19.2987257,90.4232494 C23.8048397,50.374147 54.174157,19.5 91.6653922,19.5 C128.950172,19.5 158.149992,50.3402949 161.861742,90.4330616 C163.857016,111.985175 164.150203,120.598551 162.375293,130.25324 C160.037532,142.969573 153.77079,151.624721 142.114779,156.615163 C138.228534,158.279032 129.552974,159.316591 117.327632,159.878046 C109.085023,160.256592 101.28884,160.365 91.6653922,160.365 Z"></path>
        </g>
        <g id="Oval">
            <use fill="#C2D6FF" fill-rule="evenodd" xlink:href="#path-4"></use>
            <use fill="black" fill-opacity="1" filter="url(#filter-5)" xlink:href="#path-4"></use>
        </g>
        <g id="Oval">
            <use fill="#C2D6FF" fill-rule="evenodd" xlink:href="#path-6"></use>
            <use fill="black" fill-opacity="1" filter="url(#filter-7)" xlink:href="#path-6"></use>
        </g>
    </g>
</svg>