<?xml version="1.0" encoding="UTF-8"?>
<svg width="171px" height="319px" viewBox="0 0 171 319" version="1.1" xmlns="http://www.w3.org/2000/svg" xmlns:xlink="http://www.w3.org/1999/xlink">
    <!-- Generator: Sketch 53.2 (72643) - https://sketchapp.com -->
    <title>Notification-Jelly</title>
    <desc>Created with Sketch.</desc>
    <defs>
        <linearGradient x1="50%" y1="47.8634141%" x2="50%" y2="77.6971358%" id="linearGradient-1">
            <stop stop-color="#000000" offset="0%"></stop>
            <stop stop-color="#FFFFFF" stop-opacity="0.5" offset="100%"></stop>
        </linearGradient>
    </defs>
    <g id="Notification-Jelly" stroke="none" stroke-width="1" fill="none" fill-rule="evenodd">
        <rect fill="#FFFFFF" x="0" y="0" width="171" height="319"></rect>
        <g id="noun_Alert_2281299" transform="translate(2.000000, 189.000000)"></g>
        <g id="noun_Jellyfish_469916" transform="translate(-123.000000, 27.000000)">
            <g id="Group" transform="translate(119.000000, 0.000000)"></g>
        </g>
        <path d="M171,164 L2,164 L2.00938889,163.9905 C20.0360556,145.7505 30.1666667,121.0125 30.1666667,95.2105 L30.1666667,88 C30.1666667,63.072 46.0057222,41.9345 68.0414444,34.192 C67.8724444,33.1565 67.7222222,32.0925 67.7222222,31 C67.7222222,20.512 76.1346667,12 86.5,12 C96.8653333,12 105.277778,20.512 105.277778,31 C105.277778,32.0925 105.127556,33.1565 104.958556,34.192 C126.984889,41.9345 142.833333,63.072 142.833333,88 L142.833333,95.2105 C142.833333,121.0125 152.963944,145.7505 170.990611,163.9905 L171,164 Z" id="Path" fill="url(#linearGradient-1)" fill-rule="nonzero"></path>
        <path d="M97.9256397,164 L90.7443929,164 C88.085259,163.278191 86.3371051,162.036722 86.3371051,162.036722 C86.3371051,162.036722 84.6235892,163.265581 82.017445,164 L74.6849116,164 C73.2597254,163.558699 71.7925964,162.812503 70.339005,161.644956 C69.3635111,157.92318 67.4125233,149.696095 65.2664367,132.262512 C65.2664367,132.262512 65.0713379,144.603138 67.2174245,161.25319 C64.095844,162.428488 57.0722879,163.995551 51.8046209,158.706712 L50.4389294,157.335531 C50.4389294,157.335531 40.6839903,163.21202 34.0506318,156.943765 C33.0751379,153.221989 31.1241501,144.994904 29.1731623,127.365438 C29.1731623,127.365438 28.3927672,138.72665 30.1486562,154.984935 C27.2221745,155.96435 21.9545074,156.943765 17.0770379,152.046691 L16.2966428,151.263159 L15,147.239245 C24.6996437,131.695728 29.9684616,113.548017 29.9684616,94.8441572 L29.9684616,88.1480739 C38.9725186,81.417955 49.0604196,76.8037225 57.8526831,74.6729217 C77.9478575,69.7758477 86.3371051,73.1058581 86.3371051,73.1058581 C86.3371051,73.1058581 97.067538,70.5593796 114.821527,74.6729217 C123.719643,76.6414041 133.783596,81.4191398 142.670222,88.1012902 L142.670222,94.8441572 C142.670222,113.133285 147.707973,130.890655 157,146.201459 L155.011876,150.67551 C149.54911,156.943765 143.305949,155.768467 140.769665,154.789052 C142.525554,137.747235 141.745159,125.602491 141.745159,125.602491 C139.403973,147.541383 137.062788,154.984935 136.087294,157.139648 C129.258837,161.644956 122.235281,156.943765 122.235281,156.943765 C116.187219,164.191434 108.188169,162.036722 105.066588,160.861424 C107.407773,144.01549 107.212675,132.066629 107.212675,132.066629 C105.066588,150.283744 103.310699,158.314946 102.140106,161.840839 C100.725424,162.906115 99.3043311,163.591607 97.9256397,164 L97.9256397,164 Z" id="Path" fill="#000000" fill-rule="nonzero"></path>
        <path d="M65,165 C65,175.45 73.325,184 83.5,184 C93.675,184 102,175.45 102,165 L65,165 Z" id="Path" fill="#000000" fill-rule="nonzero"></path>
        <path d="M102.81307,221.6358 C102.512081,224.031288 102.512081,225.229032 103.264553,227.474803 C103.415047,227.624521 103.264553,227.774239 103.264553,227.774239 C103.114059,228.522829 102.963564,228.971983 102.81307,229.720573 C102.512081,230.020009 102.211093,230.319445 101.910104,230.918317 C101.308127,232.116061 100.70615,233.613242 101.157633,235.26014 C101.308127,235.709294 101.609115,236.00873 102.060598,236.457884 C102.211093,236.607602 102.211093,236.607602 102.361587,236.75732 C102.512081,238.703655 102.963564,240.350553 103.716036,241.698015 C103.565542,242.746041 103.415047,243.794067 104.167519,244.842094 C104.318013,244.991812 104.468508,245.14153 104.619002,245.291248 C105.371474,246.039838 106.424934,246.189556 107.478394,246.339274 C108.080371,246.938146 108.983337,247.537018 109.735809,247.986172 C117.561514,253.376021 125.08623,246.488992 122.828815,244.243221 C122.828815,244.243221 122.828815,244.243221 122.828815,244.243221 C120.721895,242.446605 117.41102,249.034198 112.294213,243.943785 C111.692235,243.344913 110.939764,242.296887 110.187292,241.248861 C103.86653,231.666907 113.799156,228.971983 122.97931,194.387119 C126.440679,181.062215 127.343645,169.983081 126.892162,161.74859 C124.183264,162.048026 121.624861,161.598872 119.51794,161 C114.852616,164.443515 109.585315,163.99436 105.973451,162.49718 C105.371474,163.096052 104.919991,163.844642 104.619002,164.443515 C104.318013,165.641259 104.619002,166.240131 105.070485,166.689285 C105.973451,167.587593 107.929877,167.737311 108.832843,168.635619 C109.284326,169.084773 109.43482,169.533927 109.133832,170.432236 C108.682349,171.779698 107.177406,171.480262 107.478394,173.276878 C107.478394,173.87575 107.628889,174.324904 107.929877,174.62434 C108.531854,175.223212 109.735809,175.223212 110.488281,175.971802 C110.638775,176.12152 110.939764,176.420956 111.090258,176.570675 C113.347673,178.816445 110.187292,181.062215 108.682349,182.559395 C107.628889,183.607422 106.876417,185.25432 107.3279,186.901218 C107.628889,187.50009 107.779383,187.949244 108.230866,188.398398 C108.682349,188.847552 109.284326,189.146989 109.735809,189.596143 C109.886303,189.745861 110.187292,190.045297 110.337786,190.195015 C111.240752,191.692195 111.090258,192.740221 110.036798,194.087683 C108.682349,195.435146 107.478394,196.034018 107.026911,198.279788 C106.575428,200.226122 106.876417,201.423867 107.779383,202.921047 C108.531854,204.268509 108.832843,205.166817 107.929877,206.663997 C107.177406,208.01146 105.822957,208.460614 105.220979,209.658358 C104.318013,211.75441 105.371474,212.203564 106.123945,213.850463 C106.725923,215.347643 106.123945,216.245951 105.070485,217.293977 C104.619002,217.743131 103.415047,218.342003 102.963564,218.791157 C102.81307,219.539747 102.81307,220.737492 102.81307,221.6358 Z" id="Path" fill="#000000" fill-rule="nonzero"></path>
        <path d="M62.2976507,166.021274 C62.1390814,165.87021 62.2976507,165.719146 62.1390814,165.568083 C59.1262656,165.719146 55.7963113,165.265955 52.4663569,163 C50.7220952,163.453191 48.6606949,163.906382 46.4407253,163.906382 C44.8550328,174.48084 47.8678486,178.861687 50.4049567,185.810616 C53.8934802,195.176565 58.9676963,203.334004 58.8091271,209.225488 C58.6505578,213.00208 57.0648653,219.346755 57.6991423,219.951009 C58.0162808,220.253137 58.8091271,219.195691 60.5533889,215.721226 C61.8219429,214.814844 63.0904969,213.606335 63.8833432,212.548889 C65.1518972,210.736125 64.359051,209.074424 64.8347587,206.808469 C65.1518972,205.902087 65.7861742,205.599959 65.9447435,204.542513 C66.1033127,203.18294 65.9447435,202.427622 65.1518972,201.370176 C64.2004817,199.859539 63.2490662,198.046775 65.1518972,196.838266 C65.9447435,194.57231 64.993328,193.061673 63.7247739,191.853164 C63.2490662,191.399973 62.7733584,190.946782 62.2976507,190.795718 C62.1390814,190.644654 61.9805122,190.493591 61.8219429,190.342527 C60.2362504,188.83189 60.8705274,187.321253 62.1390814,185.206362 C63.5662047,182.940406 64.2004817,181.127642 62.1390814,178.861687 C62.1390814,178.861687 61.9805122,178.710623 61.9805122,178.710623 C61.3462351,178.106369 60.3948196,177.804241 59.7605426,177.199986 C59.4434041,176.897859 59.2848348,176.746795 59.2848348,176.444668 C58.8091271,175.085095 60.0776811,174.48084 60.2362504,173.121267 C61.1876659,172.517012 61.8219429,171.308503 62.7733584,170.704248 C63.4076354,168.891484 62.9319277,167.834038 62.2976507,166.021274 Z" id="Path" fill="#000000" fill-rule="nonzero"></path>
        <path d="M127.259935,305.403403 C127.259935,305.105105 127.259935,304.508509 127.259935,303.911912 C127.109767,302.56957 127.259935,300.630631 127.710439,298.095095 C128.31111,295.708709 129.362286,292.874875 131.314468,290.041041 C133.26665,287.207207 135.969672,284.522523 138.372358,280.942943 C139.573701,279.153153 140.474708,277.065065 140.775044,274.678679 C140.775044,273.485485 140.624876,272.143143 140.174372,271.099099 C139.874037,269.905906 139.123197,268.861862 138.522526,267.668669 C137.321183,265.580581 135.669336,263.641642 134.317825,261.404404 C134.317825,261.404404 134.167658,261.255255 134.167658,261.255255 C134.467993,259.167167 134.618161,257.228228 134.467993,255.289289 C134.467993,253.797798 134.167658,252.306306 133.867322,250.814815 C134.467993,249.621622 135.369001,248.726727 136.11984,247.682683 C137.921854,245.594595 140.024205,243.804805 141.976387,241.865866 C144.078737,239.777778 145.880752,237.68969 147.38243,235.303303 C148.884109,232.916917 150.385788,230.232232 150.836291,227.1001 C151.136627,225.608609 150.986459,223.967968 150.686124,222.476476 C150.385788,220.984985 149.785116,219.493493 149.184445,218.3003 C147.832934,215.764765 146.03092,213.378378 143.928569,211.29029 C142.126555,209.202202 139.874037,207.263263 138.22219,205.324324 C138.072022,205.175175 137.771687,204.876877 137.621519,204.727728 C138.973029,203.087087 140.32454,201.148148 141.525883,199.06006 C144.228905,194.287287 144.679409,188.47047 143.17773,183.697698 C142.577058,181.311311 141.375715,179.223223 140.174372,177.135135 C139.423533,175.792793 138.522526,174.5996 137.621519,173.406406 C140.174372,170.274274 142.727226,167.142142 144.829577,164.457457 C146.781759,161.921922 147.983102,159.535536 149.034277,157.298298 C148.433606,157.298298 147.983102,157.149149 147.532598,157 C146.481423,157.745746 145.430248,158.491491 144.228905,159.088088 C143.628234,160.281281 142.877394,161.325325 141.976387,162.518519 C140.32454,165.054054 138.072022,167.58959 135.969672,170.572573 C135.669336,169.677678 135.218833,168.633634 135.068665,167.887888 C134.918497,167.142142 134.768329,166.396396 134.918497,165.650651 L134.918497,165.054054 L134.918497,164.755756 C134.918497,164.755756 135.068665,164.606607 134.918497,164.457457 C134.918497,164.159159 135.068665,163.711712 135.068665,163.413413 C135.218833,162.071071 135.519168,160.877878 135.819504,159.982983 C135.218833,159.982983 134.618161,159.684685 134.167658,159.535536 C133.116482,160.281281 132.215475,160.877878 131.314468,161.474474 C131.1643,161.921922 131.1643,162.518519 131.014132,163.264264 C130.863964,163.711712 131.014132,164.159159 130.863964,164.606607 C130.863964,164.606607 130.863964,164.904905 130.863964,164.904905 L130.863964,165.203203 L130.863964,165.7998 C130.863964,166.694695 131.014132,167.738739 131.1643,168.782783 C131.464636,170.870871 132.215475,172.80981 133.26665,174.748749 C133.26665,174.748749 133.26665,174.748749 133.416818,174.897898 C132.816147,175.792793 132.065307,176.836837 131.614804,177.880881 C131.014132,178.775776 130.563629,180.118118 130.113125,181.162162 C129.812789,181.758759 129.812789,182.355355 129.512453,182.951952 C129.362286,183.697698 129.212118,184.145145 129.06195,184.890891 C128.611446,187.426426 128.461278,190.26026 128.911782,192.795796 C129.512453,195.48048 130.413461,198.165165 131.764972,200.402402 C132.365643,201.297297 132.966315,202.192192 133.566986,203.087087 C132.966315,203.981982 132.065307,204.876877 131.314468,205.920921 L131.314468,206.517518 L130.713796,207.412412 C130.413461,208.009009 130.113125,208.605606 129.662621,209.351351 C127.109767,214.273273 126.20876,219.940941 126.058592,225.459459 C125.908425,226.801802 126.058592,228.144144 126.20876,229.486486 C126.358928,230.828829 126.509096,232.171171 126.659264,233.513514 C126.9596,236.198198 127.410103,238.733734 128.010775,241.12012 C128.911782,246.191191 130.263293,251.113113 130.563629,255.587588 C130.713796,257.824825 130.563629,260.062062 130.113125,262.001001 C129.662621,263.93994 128.461278,265.431431 126.9596,266.922923 C125.457921,268.414414 123.655906,269.607608 122.154228,271.099099 C120.502381,272.73974 119.000702,274.231231 117.949527,275.871872 C116.598016,277.512513 115.697009,279.004004 114.645834,280.644645 C114.19533,281.39039 113.744827,282.136136 113.294323,283.18018 C113.144155,283.627628 112.993987,284.075075 112.84382,284.522523 C112.693652,284.96997 112.543484,285.417417 112.393316,285.864865 C111.642477,289.295295 112.09298,292.427427 112.693652,294.515516 C113.444491,296.752753 114.19533,298.393393 114.645834,299.437437 C115.096338,300.481481 115.396673,301.078078 115.396673,301.078078 C115.396673,301.078078 115.396673,300.481481 115.246505,299.139139 C115.246505,297.945946 114.94617,296.156156 114.796002,293.918919 C114.645834,291.681682 114.796002,289.146146 115.697009,286.461461 C115.847177,286.014014 115.997345,285.864865 116.147513,285.417417 C116.297681,284.96997 116.447848,284.820821 116.598016,284.373373 C116.898352,283.776777 117.348856,283.031031 117.799359,282.285285 C118.700367,280.793794 119.751542,279.451451 120.952885,277.95996 C122.154228,276.468468 123.505739,275.126126 124.857249,273.783784 C126.20876,272.441441 128.010775,271.248248 129.962957,269.607608 C130.863964,268.712713 131.764972,267.817818 132.365643,266.624625 C132.665979,266.028028 133.116482,265.580581 133.26665,264.834835 C133.566986,264.238238 133.867322,263.343343 134.01749,262.895896 C134.167658,262.746747 134.01749,262.597598 134.167658,262.448448 C135.519168,264.387387 136.870679,266.028028 137.921854,267.966967 C138.672694,269.011011 139.123197,270.055055 139.573701,271.099099 C140.024205,272.143143 140.024205,273.336336 140.174372,274.38038 C140.024205,276.617618 139.123197,278.705706 137.921854,280.495495 C135.669336,283.925926 132.966315,286.908909 131.014132,289.742743 C129.06195,292.576577 127.860607,295.55956 127.560271,297.945946 C127.109767,300.481481 127.259935,302.42042 127.259935,303.613614 C127.259935,304.508509 127.259935,305.105105 127.259935,305.403403 C127.259935,305.701702 127.259935,306 127.259935,306 C127.259935,306 127.259935,305.701702 127.259935,305.403403 Z M132.215475,185.04004 C132.816147,182.057057 134.167658,179.521522 135.669336,177.433433 C136.11984,178.179179 136.570344,178.924925 137.171015,179.81982 C138.22219,181.46046 138.973029,183.399399 139.573701,185.189189 C140.624876,188.917918 140.32454,193.392392 138.22219,196.971972 C137.471351,198.314314 136.570344,199.507508 135.669336,200.998999 C135.369001,200.402402 134.918497,199.656657 134.618161,199.06006 C131.915139,194.585586 131.1643,189.663664 132.215475,185.04004 Z M132.215475,240.225225 C131.764972,237.68969 131.314468,235.154154 131.014132,232.767768 C130.863964,231.425425 130.713796,230.381381 130.563629,229.039039 C130.563629,227.845846 130.413461,226.503504 130.413461,225.31031 C130.563629,220.388388 131.314468,215.466466 133.566986,211.439439 C133.867322,210.842843 134.01749,210.395395 134.467993,209.947948 L134.918497,209.202202 L135.369001,208.456456 C135.669336,207.85986 136.270008,207.263263 136.720511,206.815816 C136.870679,206.964965 136.870679,206.964965 137.020847,207.114114 C138.822862,209.202202 140.925212,210.991992 142.877394,212.930931 C144.829577,214.86987 146.631591,216.957958 147.832934,219.344344 C148.433606,220.537538 149.034277,221.730731 149.184445,223.073073 C149.484781,224.266266 149.484781,225.757758 149.484781,226.950951 C149.184445,229.635636 147.983102,232.022022 146.481423,234.408408 C144.979744,236.794795 143.17773,238.882883 141.225548,240.821822 C139.273365,242.760761 137.321183,244.6997 135.519168,246.787788 C134.918497,247.384384 134.467993,248.13013 134.01749,248.875876 C133.867322,248.428428 133.867322,248.13013 133.717154,247.682683 C133.26665,245.147147 132.665979,242.760761 132.215475,240.225225 Z" id="Shape" fill="#000000" fill-rule="nonzero"></path>
        <path d="M61.202737,292.939611 C61.9508108,290.713408 62.3996551,287.596725 61.5019665,284.331627 C61.3523517,283.886387 61.202737,283.441146 61.0531222,282.995906 C60.9035074,282.550665 60.7538927,282.105425 60.6042779,281.660184 C60.3050484,280.769703 59.7065893,279.879222 59.257745,279.137155 C58.2104417,277.504606 57.3127531,276.020471 55.9662202,274.387922 C54.6196873,272.755374 53.2731544,271.122825 51.7770067,269.63869 C50.1312443,268.006141 48.3358671,266.818833 46.9893342,265.483112 C45.4931866,263.998976 44.595498,262.514841 43.8474242,260.585466 C43.5481946,259.694985 43.3985799,258.65609 43.3985799,257.765609 C43.5481946,256.726714 43.6978094,255.68782 43.5481946,254.648925 C43.5481946,254.648925 43.5481946,254.648925 43.5481946,254.648925 C43.5481946,254.648925 43.6978094,254.500512 43.5481946,254.352098 C43.8474242,249.899693 45.1939571,245.002047 46.0916456,239.955988 C46.5404899,237.432958 46.9893342,234.909928 47.4381785,232.386899 C47.5877933,231.051177 47.7374081,229.715455 47.8870228,228.379734 C48.0366376,227.044012 47.8870228,225.708291 48.0366376,224.372569 C48.0366376,219.029683 47.138949,213.389969 44.4458832,208.34391 C44.1466537,207.750256 43.8474242,207.156602 43.3985799,206.414534 L42.8001208,205.524053 L42.3512765,204.781986 C42.052047,204.485159 41.9024322,204.039918 41.6032027,203.743091 C42.2016617,202.85261 42.8001208,201.962129 43.3985799,201.071648 C44.7451128,198.548618 45.7924161,196.025589 46.2412604,193.502559 C46.8397195,190.831116 46.6901047,188.011259 46.0916456,185.636643 C45.9420309,184.894575 45.7924161,184.449335 45.6428013,183.707267 C45.3435718,183.113613 45.3435718,182.519959 45.0443423,181.926305 C44.4458832,180.738997 44.1466537,179.551689 43.5481946,178.661208 C42.650506,176.880246 41.4535879,175.396111 40.4062846,173.763562 C40.4062846,173.763562 40.4062846,173.763562 40.4062846,173.763562 C41.4535879,171.834186 42.2016617,169.904811 42.5008913,167.827021 C42.650506,166.788127 42.650506,165.897646 42.8001208,164.858751 L42.650506,164.116684 L42.650506,163.819857 C42.650506,163.819857 42.650506,163.52303 42.650506,163.52303 C41.0047436,163.077789 39.508596,162.187308 38.1620631,161.148414 C38.3116778,161.593654 38.3116778,162.187308 38.4612926,162.632549 C38.4612926,162.929376 38.6109074,163.374616 38.6109074,163.671443 C38.6109074,163.671443 38.6109074,163.96827 38.6109074,163.96827 L38.6109074,164.265097 L38.6109074,164.858751 C38.6109074,165.452405 38.6109074,166.342886 38.4612926,167.084954 C38.3116778,168.123849 38.0124483,169.01433 37.563604,169.756397 C35.9178416,167.530194 34.1224644,165.452405 32.7759315,163.52303 C32.3270872,163.077789 32.1774724,162.632549 31.8782429,162.038895 C30.3820953,162.038895 28.7363328,161.593654 27.2401852,161 C27.988259,162.335722 29.0355624,163.96827 30.0828657,165.303992 C31.7286281,167.530194 33.6736201,170.053224 35.9178416,172.576254 C35.1697678,173.615148 34.4216939,174.95087 33.5240053,176.138178 C32.1774724,178.067554 31.2797838,180.145343 30.53171,182.668373 C29.1851771,187.269191 29.3347919,193.057318 32.1774724,197.954964 C33.3743906,200.32958 35.020153,202.258956 36.5163006,204.336745 C36.8155302,204.633572 36.9651449,205.078813 37.2643745,205.37564 C37.1147597,205.524053 36.9651449,205.672467 36.6659154,205.969294 C35.020153,207.898669 32.7759315,209.828045 30.9805543,211.905834 C29.1851771,213.983623 27.2401852,216.209826 25.7440375,218.881269 C24.9959637,220.216991 24.5471194,221.552712 24.2478899,223.036847 C23.9486603,224.520983 23.9486603,226.005118 24.0982751,227.637666 C24.5471194,230.75435 25.8936523,233.27738 27.6890295,235.651996 C29.3347919,237.878199 31.1301691,240.252815 33.075161,242.18219 C35.020153,244.111566 37.1147597,245.892528 38.9101369,247.970317 C39.2093664,248.267144 39.6582107,248.712385 39.8078255,249.157625 C39.508596,250.64176 39.3589812,252.274309 39.2093664,253.906858 C39.0597517,256.429887 39.0597517,259.101331 39.9574403,261.772774 C39.9574403,262.069601 40.107055,262.218014 40.2566698,262.663255 C39.0597517,264.444217 37.8628335,266.225179 36.6659154,268.006141 C35.9178416,269.045036 35.4689973,270.08393 35.020153,271.419652 C34.5713087,272.458547 34.4216939,273.794268 34.5713087,274.833163 C34.8705382,277.207779 35.7682268,279.285568 36.9651449,281.06653 C39.3589812,284.628454 42.052047,287.299898 43.9970389,290.119754 C45.9420309,292.939611 47.138949,295.611054 47.5877933,298.134084 C48.1862524,300.5087 48.0366376,302.438076 48.0366376,303.922211 C48.0366376,304.515865 48.0366376,305.109519 48.0366376,305.406346 C48.0366376,305.703173 48.0366376,306 48.0366376,306 C48.0366376,306 48.0366376,305.703173 48.0366376,305.406346 C48.0366376,305.109519 48.0366376,304.515865 48.0366376,303.922211 C48.1862524,302.586489 48.1862524,300.5087 47.7374081,298.282497 C47.2885638,295.759468 46.0916456,293.088025 44.1466537,290.268168 C42.3512765,287.299898 39.508596,284.480041 37.2643745,281.06653 C36.0674563,279.285568 35.1697678,277.207779 35.1697678,275.12999 C35.1697678,273.942682 35.1697678,273.052201 35.7682268,271.864893 C36.2170711,270.825998 36.6659154,269.787103 37.4139892,268.748209 C38.4612926,267.11566 39.6582107,265.631525 40.7055141,263.998976 C41.0047436,264.592631 41.3039731,265.186285 41.6032027,265.779939 C42.3512765,266.818833 43.0993503,267.857728 43.9970389,268.748209 C45.7924161,270.529171 47.5877933,271.716479 49.083941,272.903787 C50.5800886,274.091095 51.7770067,275.57523 52.9739249,277.059365 C54.170843,278.543501 55.0685316,280.027636 56.1158349,281.363357 C56.5646792,282.105425 57.0135235,282.847492 57.3127531,283.441146 C57.4623678,283.886387 57.6119826,284.0348 57.7615974,284.480041 C57.9112121,284.925281 58.0608269,285.073695 58.2104417,285.518936 C59.1081303,288.190379 59.257745,290.713408 59.1081303,292.939611 C58.9585155,295.165814 58.659286,296.946776 58.659286,298.134084 C58.5096712,299.469806 58.5096712,300.06346 58.5096712,300.06346 C58.5096712,300.06346 58.8089007,299.469806 59.257745,298.430911 C59.7065893,296.798362 60.6042779,295.314227 61.202737,292.939611 Z M36.0674563,195.877175 C33.8232349,192.166837 33.6736201,187.862845 34.7209235,184.152508 C35.1697678,182.223132 36.0674563,180.44217 37.1147597,178.809621 C37.563604,178.067554 38.1620631,177.177073 38.6109074,176.435005 C40.7055141,179.106448 42.5008913,182.371546 43.3985799,185.93347 C44.4458832,190.237462 43.5481946,195.283521 41.1543584,199.735926 C40.8551288,200.32958 40.4062846,201.071648 40.107055,201.665302 C38.4612926,199.735926 37.1147597,197.806551 36.0674563,195.877175 Z M39.9574403,247.22825 C38.1620631,245.150461 36.2170711,243.221085 34.2720792,241.291709 C32.3270872,239.362334 30.6813248,237.136131 29.0355624,234.909928 C27.5394147,232.535312 26.3424966,230.160696 26.043267,227.489253 C25.8936523,226.153531 25.8936523,224.966223 26.3424966,223.630502 C26.4921113,222.29478 27.0905704,221.107472 27.6890295,219.920164 C28.8859476,217.545548 30.6813248,215.467758 32.6263167,213.538383 C34.5713087,211.609007 36.5163006,209.679632 38.4612926,207.750256 C38.4612926,207.750256 38.6109074,207.601842 38.6109074,207.601842 C38.6109074,207.601842 38.6109074,207.601842 38.6109074,207.601842 L39.0597517,208.34391 L39.508596,209.085977 C39.8078255,209.382805 40.107055,209.976459 40.4062846,210.570113 C42.5008913,214.725691 43.3985799,219.474923 43.5481946,224.372569 C43.5481946,225.559877 43.5481946,226.747185 43.3985799,228.082907 C43.3985799,229.270215 43.2489651,230.605937 42.9497356,231.793245 C42.8001208,234.019447 42.3512765,236.542477 41.9024322,239.065507 C41.4535879,241.588536 40.8551288,243.963153 40.4062846,246.486182 C40.4062846,246.783009 40.2566698,247.22825 40.2566698,247.525077 C40.107055,247.376663 40.107055,247.376663 39.9574403,247.22825 Z" id="Shape" fill="#000000" fill-rule="nonzero"></path>
    </g>
</svg>