<?xml version="1.0" encoding="UTF-8"?>
<svg width="112px" height="93px" viewBox="0 0 112 93" version="1.1" xmlns="http://www.w3.org/2000/svg" xmlns:xlink="http://www.w3.org/1999/xlink">
    <!-- Generator: Sketch 53.2 (72643) - https://sketchapp.com -->
    <title>jelly</title>
    <desc>Created with Sketch.</desc>
    <g id="jelly" stroke="none" stroke-width="1" fill="none" fill-rule="evenodd">
        <rect fill="#FFFFFF" x="0" y="0" width="112" height="93"></rect>
        <g id="noun_Jellyfish_469916" transform="translate(12.000000, 3.000000)" fill="#000000" fill-rule="nonzero">
            <g id="Group">
                <path d="M24.2,42.2 C24.4,42.2 24.7,42.2 24.9,42.2 C27.6,42.2 29,40 29.5,38.9 C24.7,35.2 21.6,32 21.6,32 C26.6,35.9 29.2,37.5 30.4,38.2 C34,37.8 34.6,34.2 34.6,34.2 C34.6,34.2 38.1,33.6 38.6,30.1 C38,28.9 36.4,26.4 32.3,21.2 C32.3,21.2 35.4,24.2 39.1,29.1 C40.2,28.6 42.8,27.1 42.5,23.7 C42.5,23.7 45.5,23.1 46.1,20.2 C45.8,19.4 44.5,16.9 39.5,10.7 C39.5,10.7 42.8,13.6 46.7,18.4 C47.6,18 49.5,16.7 49.3,13.7 L47.5,9 C45,3.8 39.8,0.6 34,0.6 C33.9,0.6 33.8,0.6 33.7,0.6 C28.5,0.7 23.2,2.3 19.6,4.6 C14,8.1 11.9,11.5 11.9,11.5 C11.9,11.5 8.9,12.8 5,19.2 C2.8,22.8 1.1,28 1,33.3 C0.9,39.2 4.1,44.6 9.4,47.1 L13.9,49.4 C14,49.4 14.2,49.4 14.3,49.4 C16.8,49.4 17.9,47.8 18.4,46.8 C13.8,43.1 11.1,40 11.1,40 C16.1,44 18.7,45.6 19.9,46.3 C23.2,46.2 24.2,42.2 24.2,42.2 Z" id="Path"></path>
                <path d="M55.1,56.4 C55.8,57.3 56.2,57.7 57.2,58.2 C57.3,58.2 57.3,58.3 57.3,58.3 C57.5,58.6 57.6,58.8 57.8,59.1 C57.8,59.3 57.8,59.5 57.9,59.8 C58.1,60.4 58.4,61.1 59.1,61.5 C59.3,61.6 59.5,61.6 59.8,61.6 C59.9,61.6 59.9,61.6 60,61.6 C60.7,62.2 61.4,62.6 62.1,62.8 C62.4,63.2 62.7,63.6 63.3,63.7 C63.4,63.7 63.5,63.7 63.6,63.7 C64.1,63.7 64.5,63.4 64.9,63.1 C65.3,63.1 65.8,63 66.2,62.9 C70.6,62.1 70.8,57.3 69.3,57.3 C69.3,57.3 69.3,57.3 69.3,57.3 C68,57.4 69.1,60.7 65.7,60.7 C65.3,60.7 64.7,60.6 64.1,60.5 C58.8,59.4 61.2,55.2 52.7,40.6 C49.4,35 46,31 43.1,28.4 C42.3,29.4 41.3,30.1 40.4,30.6 C40,33.3 38.1,34.9 36.4,35.6 C36.4,36 36.5,36.4 36.6,36.7 C36.9,37.2 37.2,37.3 37.5,37.3 C38.1,37.3 38.8,36.7 39.4,36.7 C39.7,36.7 39.9,36.8 40.1,37.2 C40.4,37.8 39.8,38.2 40.5,38.7 C40.7,38.9 40.9,39 41.1,39 C41.5,39 41.9,38.6 42.4,38.6 C42.5,38.6 42.7,38.6 42.8,38.6 C44.3,38.6 44,40.4 44,41.4 C44,42.1 44.3,42.9 45,43.3 C45.3,43.4 45.5,43.5 45.8,43.5 C46.1,43.5 46.4,43.4 46.7,43.4 C46.8,43.4 47,43.4 47.1,43.4 C47.9,43.6 48.2,44 48.3,44.8 C48.3,45.7 48.1,46.3 48.7,47.2 C49.2,48 49.7,48.3 50.5,48.5 C51.2,48.7 51.6,48.9 51.8,49.7 C52,50.4 51.7,51 51.9,51.6 C52.3,52.6 52.8,52.4 53.6,52.7 C54.3,53 54.4,53.5 54.4,54.2 C54.4,54.5 54.2,55.1 54.2,55.4 C54.4,55.7 54.8,56.1 55.1,56.4 Z" id="Path"></path>
                <path d="M35.1,37.8 C35,37.8 35,37.7 34.9,37.7 C34,38.7 32.8,39.6 31,39.9 C30.6,40.6 30.1,41.4 29.4,42.1 C32.4,46.1 34.8,46.6 37.9,48.1 C42.1,50.1 46.4,51.2 48.3,53.2 C49.5,54.5 51.1,57.1 51.5,57.1 C51.7,57.1 51.6,56.5 51,54.8 C51.1,54.1 51.1,53.3 51,52.7 C50.8,51.7 50,51.4 49.4,50.5 C49.2,50.1 49.3,49.8 49,49.4 C48.6,48.9 48.3,48.7 47.7,48.6 C46.9,48.4 46,48.1 46.2,47.1 C45.7,46.1 44.9,45.9 44.1,45.9 C43.8,45.9 43.5,45.9 43.3,46 C43.2,46 43.1,46 43,46 C42,46 41.7,45.3 41.4,44.2 C41.1,43 40.7,42.2 39.3,42.1 C39.3,42.1 39.2,42.1 39.2,42.1 C38.8,42.1 38.4,42.3 38,42.3 C37.8,42.3 37.7,42.3 37.6,42.2 C37,41.9 37.2,41.3 36.8,40.8 C36.9,40.3 36.7,39.7 36.8,39.2 C36.4,38.4 35.9,38.2 35.1,37.8 Z" id="Path"></path>
                <path d="M90.8,76.5 C90.7,76.4 90.5,76.2 90.3,76 C89.8,75.6 89.2,74.9 88.5,73.9 C87.9,72.9 87.3,71.6 87,70 C86.7,68.4 86.7,66.6 86.3,64.6 C86.1,63.6 85.7,62.6 85,61.7 C84.6,61.3 84.1,60.9 83.6,60.7 C83.1,60.4 82.5,60.3 81.9,60.1 C80.8,59.8 79.6,59.7 78.4,59.4 C78.4,59.4 78.3,59.4 78.3,59.4 C77.7,58.6 77.1,57.9 76.4,57.3 C75.9,56.8 75.3,56.4 74.7,56 C74.5,55.4 74.5,54.8 74.4,54.2 C74.3,52.9 74.4,51.6 74.4,50.3 C74.4,48.9 74.3,47.6 74,46.3 C73.7,45 73.3,43.6 72.4,42.4 C72,41.8 71.4,41.3 70.8,40.9 C70.2,40.5 69.5,40.2 68.9,40 C67.6,39.6 66.2,39.4 64.8,39.4 C63.5,39.3 62.1,39.4 60.9,39.3 C60.8,39.3 60.6,39.3 60.5,39.3 C60.4,38.3 60.2,37.2 59.9,36.1 C59.2,33.6 57.4,31.5 55.3,30.4 C54.3,29.8 53.2,29.5 52.1,29.2 C51.4,29 50.7,28.9 50,28.8 C49.8,26.9 49.6,25 49.4,23.4 C49.2,21.9 48.8,20.7 48.4,19.6 C48.2,19.8 48,19.9 47.8,20 C47.7,20.6 47.6,21.2 47.4,21.8 C47.6,22.4 47.7,23 47.8,23.7 C48.1,25.1 48.2,26.7 48.5,28.4 C48.1,28.2 47.6,28 47.3,27.8 C47,27.6 46.7,27.4 46.5,27.1 L46.3,26.9 L46.2,26.8 C46.2,26.8 46.2,26.7 46.1,26.7 C46,26.6 45.9,26.4 45.8,26.3 C45.4,25.8 45.1,25.3 44.9,24.9 C44.7,25.1 44.4,25.2 44.2,25.3 C44.1,25.9 44,26.4 43.9,26.9 C44,27.1 44.2,27.3 44.4,27.6 C44.5,27.8 44.7,27.9 44.8,28.1 C44.8,28.1 44.9,28.2 44.9,28.2 L45,28.3 L45.2,28.5 C45.5,28.8 45.9,29.1 46.3,29.4 C47.1,30 48,30.4 49,30.7 C49,30.7 49,30.7 49.1,30.7 C49.2,31.2 49.3,31.8 49.5,32.3 C49.6,32.8 49.9,33.4 50.1,33.9 C50.2,34.2 50.4,34.4 50.5,34.7 C50.7,35 50.8,35.2 51,35.5 C51.7,36.5 52.6,37.5 53.6,38.2 C54.7,38.9 55.9,39.5 57.1,39.8 C57.6,39.9 58.1,40 58.6,40.1 C58.7,40.6 58.7,41.2 58.8,41.8 L59,42 L59.1,42.5 C59.2,42.8 59.3,43.1 59.4,43.5 C60.2,46 61.8,48.2 63.6,50.1 C64,50.6 64.5,51 65,51.4 C65.5,51.8 66,52.2 66.5,52.6 C67.5,53.4 68.5,54.1 69.5,54.7 C71.5,56.1 73.6,57.3 75.2,58.7 C76,59.4 76.7,60.2 77.2,61 C77.7,61.8 77.8,62.7 77.8,63.7 C77.8,64.7 77.6,65.7 77.6,66.7 C77.6,67.8 77.6,68.8 77.8,69.7 C77.9,70.7 78.1,71.5 78.3,72.4 C78.4,72.8 78.5,73.2 78.7,73.7 C78.8,73.9 78.9,74.1 79,74.3 C79.1,74.5 79.2,74.7 79.3,74.9 C80.2,76.3 81.4,77.2 82.3,77.7 C83.3,78.2 84.1,78.5 84.6,78.7 C85.1,78.9 85.4,79 85.4,79 C85.4,79 85.2,78.8 84.7,78.4 C84.3,78 83.6,77.5 82.8,76.8 C82,76.1 81.2,75.2 80.6,74 C80.5,73.8 80.5,73.7 80.4,73.5 C80.3,73.3 80.3,73.2 80.2,73 C80.1,72.7 80,72.3 79.9,71.9 C79.7,71.1 79.6,70.3 79.5,69.4 C79.4,68.5 79.4,67.6 79.4,66.7 C79.4,65.8 79.6,64.8 79.7,63.6 C79.7,63 79.7,62.4 79.5,61.8 C79.4,61.5 79.4,61.2 79.2,60.9 C79.1,60.6 78.9,60.2 78.8,60 C78.8,59.9 78.7,59.9 78.7,59.8 C79.8,60 80.8,60.1 81.8,60.4 C82.4,60.5 82.9,60.7 83.4,60.9 C83.9,61.1 84.3,61.5 84.7,61.8 C85.4,62.6 85.8,63.6 86,64.6 C86.4,66.5 86.5,68.4 86.8,70 C87.1,71.6 87.7,73 88.4,73.9 C89.1,74.9 89.8,75.5 90.2,75.9 C90.5,76.2 90.7,76.4 90.8,76.5 C90.9,76.6 91,76.7 91,76.7 C91,76.7 90.9,76.6 90.8,76.5 Z M52.1,34.5 C51.3,33.3 50.9,32 50.7,30.8 C51.1,30.9 51.5,31 52,31.1 C52.9,31.3 53.8,31.7 54.6,32.1 C56.2,33 57.6,34.6 58.1,36.5 C58.3,37.2 58.4,37.9 58.6,38.7 C58.3,38.6 57.9,38.5 57.6,38.4 C55.2,37.8 53.3,36.4 52.1,34.5 Z M70.6,53 C69.6,52.3 68.6,51.6 67.7,50.9 C67.2,50.5 66.8,50.2 66.3,49.8 C65.9,49.4 65.4,49 65,48.6 C63.4,46.9 62,45 61.4,42.9 C61.3,42.6 61.2,42.4 61.2,42.1 L61.1,41.7 L61,41.3 C60.9,41 60.9,40.6 60.9,40.3 C61,40.3 61,40.3 61.1,40.3 C62.4,40.4 63.7,40.3 65,40.3 C66.3,40.3 67.6,40.4 68.8,40.8 C69.4,41 70,41.2 70.5,41.6 C71,41.9 71.5,42.4 71.9,42.8 C72.7,43.8 73.1,45 73.4,46.3 C73.7,47.6 73.8,48.9 73.8,50.2 C73.8,51.5 73.8,52.8 73.9,54.1 C73.9,54.5 74,54.9 74.1,55.3 C73.9,55.2 73.8,55.1 73.6,55 C72.6,54.3 71.6,53.7 70.6,53 Z" id="Shape"></path>
                <path d="M77.6,80.7 C77.1,79.7 76.2,78.5 74.8,77.7 C74.6,77.6 74.4,77.5 74.2,77.4 C74,77.3 73.8,77.2 73.6,77.1 C73.2,76.9 72.7,76.8 72.3,76.7 C71.4,76.5 70.6,76.3 69.6,76.2 C68.6,76.1 67.6,76 66.6,76 C65.5,76 64.5,76.2 63.6,76.2 C62.6,76.2 61.8,76 60.9,75.6 C60.5,75.4 60.1,75.1 59.8,74.8 C59.5,74.4 59.2,74 58.8,73.7 C58.8,73.7 58.8,73.7 58.8,73.7 C58.8,73.7 58.8,73.6 58.7,73.6 C57.3,72 56.1,69.9 54.7,67.9 C54,66.9 53.3,65.9 52.6,64.9 C52.2,64.4 51.8,63.9 51.4,63.4 C51,62.9 50.5,62.5 50.1,62 C48.3,60.2 46.1,58.6 43.5,57.8 C43.2,57.7 42.9,57.6 42.5,57.5 L42,57.4 L41.6,57.3 C41.4,57.3 41.2,57.2 41,57.2 C40.9,56.7 40.8,56.2 40.7,55.7 C40.3,54.4 39.8,53.2 39.1,52.2 C38.4,51.1 37.4,50.2 36.4,49.6 C36.1,49.4 35.9,49.3 35.6,49.1 C35.3,49 35.1,48.8 34.8,48.7 C34.2,48.5 33.7,48.2 33.2,48.1 C32.3,47.8 31.4,47.7 30.5,47.5 C30.5,47.5 30.5,47.5 30.5,47.5 C30.2,46.5 29.8,45.6 29.2,44.8 C28.9,44.4 28.6,44.1 28.3,43.7 L28,43.5 L27.9,43.4 C27.9,43.4 27.8,43.3 27.8,43.3 C27.1,43.7 26.3,43.9 25.5,44 C25.7,44.1 25.9,44.3 26.1,44.4 C26.2,44.5 26.4,44.6 26.5,44.7 C26.5,44.7 26.6,44.8 26.6,44.8 L26.7,44.9 L26.9,45.1 C27.1,45.3 27.4,45.6 27.6,45.9 C27.9,46.3 28.1,46.7 28.2,47.1 C26.9,46.9 25.6,46.8 24.5,46.6 C24.2,46.6 24,46.5 23.7,46.4 C23.2,46.9 22.5,47.3 21.8,47.6 C22.5,47.8 23.4,48 24.2,48.1 C25.5,48.3 27,48.5 28.6,48.6 C28.7,49.2 28.9,49.9 29,50.6 C29.2,51.7 29.6,52.7 30.2,53.8 C31.3,55.8 33.3,57.7 35.9,58.4 C37.1,58.8 38.3,58.9 39.5,59.1 C39.7,59.1 39.9,59.2 40.1,59.2 C40.1,59.3 40.1,59.4 40.1,59.6 C40.2,60.8 40.1,62.2 40.2,63.5 C40.3,64.8 40.4,66.2 40.8,67.6 C41,68.3 41.3,68.9 41.7,69.5 C42.1,70.1 42.6,70.6 43.2,71.1 C44.4,72 45.7,72.4 47.1,72.6 C48.4,72.8 49.8,73 51.1,73 C52.4,73 53.7,72.9 55,73 C55.2,73 55.5,73 55.7,73.1 C56.1,73.7 56.6,74.3 57.1,74.9 C57.9,75.8 58.8,76.7 60,77.3 C60.1,77.4 60.2,77.4 60.4,77.5 C60.6,78.5 60.8,79.5 61,80.5 C61.1,81.1 61.3,81.6 61.6,82.2 C61.8,82.7 62.2,83.2 62.6,83.5 C63.5,84.2 64.5,84.6 65.5,84.8 C67.5,85.2 69.3,85.2 70.9,85.5 C72.5,85.8 73.8,86.3 74.8,87 C75.8,87.6 76.4,88.3 76.9,88.8 C77.1,89 77.3,89.2 77.4,89.3 C77.5,89.4 77.6,89.5 77.6,89.5 C77.6,89.5 77.5,89.4 77.4,89.3 C77.3,89.2 77.1,89 76.9,88.8 C76.5,88.3 75.8,87.6 74.9,87 C73.9,86.3 72.6,85.8 71,85.5 C69.4,85.1 67.5,85.1 65.6,84.7 C64.6,84.5 63.6,84.1 62.9,83.4 C62.5,83 62.2,82.7 62,82.1 C61.8,81.6 61.6,81.1 61.5,80.5 C61.3,79.6 61.2,78.7 61,77.8 C61.3,77.9 61.6,78 61.9,78.1 C62.5,78.2 63.1,78.3 63.7,78.3 C64.9,78.3 65.9,78.1 66.8,78 C67.7,77.9 68.6,78 69.5,78.1 C70.4,78.2 71.2,78.4 72,78.5 C72.4,78.6 72.8,78.7 73.1,78.8 C73.3,78.9 73.4,78.9 73.6,79 C73.8,79.1 73.9,79.1 74.1,79.2 C75.3,79.8 76.2,80.6 76.9,81.4 C77.6,82.2 78.1,82.9 78.5,83.3 C78.9,83.8 79.1,84 79.1,84 C79.1,84 79,83.7 78.8,83.2 C78.4,82.5 78.2,81.7 77.6,80.7 Z M36.5,56.4 C34.5,55.9 33,54.5 32.1,52.9 C31.6,52.1 31.3,51.2 31.1,50.3 C31,49.9 30.9,49.4 30.8,49 C32.4,49.2 34.1,49.7 35.6,50.6 C37.4,51.7 38.8,53.7 39.5,56 C39.6,56.3 39.7,56.7 39.8,57 C38.6,56.9 37.5,56.7 36.5,56.4 Z M55.1,72.4 C53.8,72.3 52.5,72.3 51.2,72.3 C49.9,72.3 48.6,72.1 47.3,71.9 C46,71.6 44.8,71.2 43.8,70.4 C43.3,70 42.9,69.6 42.6,69 C42.2,68.5 42,67.9 41.8,67.3 C41.4,66.1 41.3,64.8 41.3,63.5 C41.3,62.2 41.3,60.9 41.3,59.6 C41.3,59.6 41.3,59.5 41.3,59.5 C41.3,59.5 41.3,59.5 41.3,59.5 L41.7,59.6 L42.1,59.7 C42.3,59.7 42.6,59.8 42.9,59.9 C45,60.6 46.9,61.9 48.6,63.5 C49,63.9 49.4,64.3 49.8,64.8 C50.2,65.2 50.6,65.7 50.9,66.2 C51.6,67 52.3,68 53,69 C53.7,70 54.3,71 55,72 C55.1,72.1 55.2,72.3 55.3,72.4 C55.2,72.4 55.2,72.4 55.1,72.4 Z" id="Shape"></path>
            </g>
        </g>
    </g>
</svg>