<?xml version="1.0" encoding="UTF-8"?>
<svg width="180px" height="180px" viewBox="0 0 180 180" version="1.1" xmlns="http://www.w3.org/2000/svg" xmlns:xlink="http://www.w3.org/1999/xlink">
    <!-- Generator: Sketch 53.2 (72643) - https://sketchapp.com -->
    <title>Icon-Original</title>
    <desc>Created with Sketch.</desc>
    <defs>
        <path d="M86.5039697,27.261907 C74.0380834,46.2527444 74.3715792,71.8311174 89.1339268,90.7260607 C103.896274,109.621004 128.63418,116.132562 150.07668,108.631265 C146.89419,113.479548 142.877488,117.898481 138.053687,121.667248 C114.334942,140.198362 80.0846646,135.992957 61.5535504,112.274212 C43.0224362,88.5554678 47.2278415,54.30519 70.9465861,35.7740758 C75.7703874,32.0053092 81.0297878,29.1769573 86.5039697,27.261907 L86.5039697,27.261907 Z" id="path-1"></path>
        <filter x="-19.0%" y="-18.1%" width="141.9%" height="137.9%" filterUnits="objectBoundingBox" id="filter-2">
            <feMorphology radius="3" operator="dilate" in="SourceAlpha" result="shadowSpreadOuter1"></feMorphology>
            <feOffset dx="0" dy="2" in="shadowSpreadOuter1" result="shadowOffsetOuter1"></feOffset>
            <feGaussianBlur stdDeviation="5" in="shadowOffsetOuter1" result="shadowBlurOuter1"></feGaussianBlur>
            <feComposite in="shadowBlurOuter1" in2="SourceAlpha" operator="out" result="shadowBlurOuter1"></feComposite>
            <feColorMatrix values="0 0 0 0 0   0 0 0 0 0   0 0 0 0 0  0 0 0 0.5 0" type="matrix" in="shadowBlurOuter1"></feColorMatrix>
        </filter>
        <filter x="-18.0%" y="-17.1%" width="139.9%" height="136.0%" filterUnits="objectBoundingBox" id="filter-3">
            <feOffset dx="10" dy="0" in="SourceAlpha" result="shadowOffsetInner1"></feOffset>
            <feComposite in="shadowOffsetInner1" in2="SourceAlpha" operator="arithmetic" k2="-1" k3="1" result="shadowInnerInner1"></feComposite>
            <feColorMatrix values="0 0 0 0 0   0 0 0 0 0   0 0 0 0 0  0 0 0 0.1 0" type="matrix" in="shadowInnerInner1" result="shadowMatrixInner1"></feColorMatrix>
            <feOffset dx="0" dy="4" in="SourceAlpha" result="shadowOffsetInner2"></feOffset>
            <feComposite in="shadowOffsetInner2" in2="SourceAlpha" operator="arithmetic" k2="-1" k3="1" result="shadowInnerInner2"></feComposite>
            <feColorMatrix values="0 0 0 0 1   0 0 0 0 1   0 0 0 0 1  0 0 0 0.15 0" type="matrix" in="shadowInnerInner2" result="shadowMatrixInner2"></feColorMatrix>
            <feMerge>
                <feMergeNode in="shadowMatrixInner1"></feMergeNode>
                <feMergeNode in="shadowMatrixInner2"></feMergeNode>
            </feMerge>
        </filter>
    </defs>
    <g id="Icon-Original" stroke="none" stroke-width="1" fill="none" fill-rule="evenodd">
        <rect id="Rectangle" fill="#2C2C2C" x="0" y="0" width="180" height="180" rx="30"></rect>
        <g id="Path">
            <use fill="black" fill-opacity="1" filter="url(#filter-2)" xlink:href="#path-1"></use>
            <use fill-opacity="0.85" fill="#FFFFFF" fill-rule="evenodd" xlink:href="#path-1"></use>
            <use fill="black" fill-opacity="1" filter="url(#filter-3)" xlink:href="#path-1"></use>
            <path stroke-opacity="0.05" stroke="#FFFFFF" stroke-width="3" d="M87.7579462,28.085037 C75.3958735,46.9177222 76.2227959,71.7641628 90.3159429,89.8025684 C104.40909,107.840974 128.317434,114.654231 149.581364,107.215404 L153.75991,105.75361 L151.330656,109.454395 C148.003668,114.522811 143.852501,119.040245 138.977179,122.849264 C114.605625,141.890409 79.4126791,137.569259 60.3715343,113.197705 C41.3303894,88.8261505 45.6515398,53.6332045 70.0230939,34.5920597 C74.898416,30.7830406 80.2859212,27.8480476 86.0086546,25.8460459 L90.1871999,24.3842522 L87.7579462,28.085037 Z"></path>
        </g>
    </g>
</svg>