<?xml version="1.0" encoding="UTF-8"?>
<svg width="720px" height="1136px" viewBox="0 0 720 1136" version="1.1" xmlns="http://www.w3.org/2000/svg" xmlns:xlink="http://www.w3.org/1999/xlink">
    <!-- Generator: Sketch 53.2 (72643) - https://sketchapp.com -->
    <title>Splash-cropped Copy</title>
    <desc>Created with Sketch.</desc>
    <defs>
        <path d="M299.973759,551.665392 C325.211518,551.665392 406.457542,551.515075 428.204516,542.471179 C491.096074,516.316518 484.6303,451.08777 477.82505,379.687617 C468.821488,285.222945 398.198315,205 299.973759,205 C201.749204,205 127.592151,284.636447 116.581852,379.687617 C108.82273,446.671589 104.165742,514.132582 161.066821,542.471179 C185.627918,554.703408 270.358753,551.665392 299.973759,551.665392 Z" id="path-1"></path>
        <filter x="-3.9%" y="-4.2%" width="107.9%" height="108.4%" filterUnits="objectBoundingBox" id="filter-2">
            <feGaussianBlur stdDeviation="8" in="SourceAlpha" result="shadowBlurInner1"></feGaussianBlur>
            <feOffset dx="0" dy="-11" in="shadowBlurInner1" result="shadowOffsetInner1"></feOffset>
            <feComposite in="shadowOffsetInner1" in2="SourceAlpha" operator="arithmetic" k2="-1" k3="1" result="shadowInnerInner1"></feComposite>
            <feColorMatrix values="0 0 0 0 0.535495924   0 0 0 0 0.535495924   0 0 0 0 0.535495924  0 0 0 1 0" type="matrix" in="shadowInnerInner1"></feColorMatrix>
        </filter>
        <path d="M91.5841487,110.666214 C137.935215,43.8618088 216.004263,0 304.5,0 C397.512189,0 479.006262,48.4530998 524.261871,121.070957 C469.376079,70.0447271 390.125459,38 302,38 C220.026743,38 145.73244,65.7266997 91.5841356,110.666224 Z" id="path-3"></path>
        <filter x="-0.2%" y="-2.1%" width="101.1%" height="105.8%" filterUnits="objectBoundingBox" id="filter-4">
            <feOffset dx="0" dy="1" in="SourceAlpha" result="shadowOffsetOuter1"></feOffset>
            <feGaussianBlur stdDeviation="1" in="shadowOffsetOuter1" result="shadowBlurOuter1"></feGaussianBlur>
            <feColorMatrix values="0 0 0 0 0.535948822   0 0 0 0 0.535948822   0 0 0 0 0.535948822  0 0 0 1 0" type="matrix" in="shadowBlurOuter1"></feColorMatrix>
        </filter>
        <filter x="-0.8%" y="-4.1%" width="102.2%" height="110.0%" filterUnits="objectBoundingBox" id="filter-5">
            <feGaussianBlur stdDeviation="3" in="SourceAlpha" result="shadowBlurInner1"></feGaussianBlur>
            <feOffset dx="0" dy="-2" in="shadowBlurInner1" result="shadowOffsetInner1"></feOffset>
            <feComposite in="shadowOffsetInner1" in2="SourceAlpha" operator="arithmetic" k2="-1" k3="1" result="shadowInnerInner1"></feComposite>
            <feColorMatrix values="0 0 0 0 0.535495924   0 0 0 0 0.535495924   0 0 0 0 0.535495924  0 0 0 1 0" type="matrix" in="shadowInnerInner1"></feColorMatrix>
        </filter>
        <path d="M124.05312,174.384357 C163.048676,110.80347 229.091853,69 304,69 C380.662136,69 448.039292,112.784062 486.641424,178.886197 C440.394486,133.358492 375.216833,105 303,105 C233.19404,105 169.965117,131.496667 124.053112,174.384365 Z" id="path-6"></path>
        <filter x="-1.8%" y="-2.3%" width="102.7%" height="106.3%" filterUnits="objectBoundingBox" id="filter-7">
            <feOffset dx="0" dy="1" in="SourceAlpha" result="shadowOffsetOuter1"></feOffset>
            <feGaussianBlur stdDeviation="1" in="shadowOffsetOuter1" result="shadowBlurOuter1"></feGaussianBlur>
            <feColorMatrix values="0 0 0 0 0.535948822   0 0 0 0 0.535948822   0 0 0 0 0.535948822  0 0 0 1 0" type="matrix" in="shadowBlurOuter1"></feColorMatrix>
        </filter>
        <filter x="-2.3%" y="-4.1%" width="103.8%" height="109.9%" filterUnits="objectBoundingBox" id="filter-8">
            <feGaussianBlur stdDeviation="2.5" in="SourceAlpha" result="shadowBlurInner1"></feGaussianBlur>
            <feOffset dx="0" dy="-2" in="shadowBlurInner1" result="shadowOffsetInner1"></feOffset>
            <feComposite in="shadowOffsetInner1" in2="SourceAlpha" operator="arithmetic" k2="-1" k3="1" result="shadowInnerInner1"></feComposite>
            <feColorMatrix values="0 0 0 0 0.535495924   0 0 0 0 0.535495924   0 0 0 0 0.535495924  0 0 0 1 0" type="matrix" in="shadowInnerInner1"></feColorMatrix>
        </filter>
        <path d="M184.137196,209.52863 C211.255866,169.105311 254.183179,143 302.5,143 C353.479809,143 398.45965,172.062205 425.200941,216.340945 C393.625546,185.27269 349.643843,166 301,166 C256.017827,166 215.022327,182.480388 184.137176,209.528648 Z" id="path-9"></path>
        <filter x="-1.0%" y="-3.4%" width="102.1%" height="108.6%" filterUnits="objectBoundingBox" id="filter-10">
            <feOffset dx="0" dy="1" in="SourceAlpha" result="shadowOffsetOuter1"></feOffset>
            <feGaussianBlur stdDeviation="1" in="shadowOffsetOuter1" result="shadowBlurOuter1"></feGaussianBlur>
            <feColorMatrix values="0 0 0 0 0.535948822   0 0 0 0 0.535948822   0 0 0 0 0.535948822  0 0 0 1 0" type="matrix" in="shadowBlurOuter1"></feColorMatrix>
        </filter>
        <filter x="-1.4%" y="-4.7%" width="102.9%" height="111.3%" filterUnits="objectBoundingBox" id="filter-11">
            <feGaussianBlur stdDeviation="2" in="SourceAlpha" result="shadowBlurInner1"></feGaussianBlur>
            <feOffset dx="0" dy="-1" in="shadowBlurInner1" result="shadowOffsetInner1"></feOffset>
            <feComposite in="shadowOffsetInner1" in2="SourceAlpha" operator="arithmetic" k2="-1" k3="1" result="shadowInnerInner1"></feComposite>
            <feColorMatrix values="0 0 0 0 0.535495924   0 0 0 0 0.535495924   0 0 0 0 0.535495924  0 0 0 1 0" type="matrix" in="shadowInnerInner1"></feColorMatrix>
        </filter>
        <linearGradient x1="5.50280406%" y1="18.7302815%" x2="100%" y2="81.6997671%" id="linearGradient-12">
            <stop stop-color="#FFFFFF" offset="0%"></stop>
            <stop stop-color="#000000" offset="100%"></stop>
        </linearGradient>
        <linearGradient x1="4.04685472%" y1="0%" x2="81.2163443%" y2="87.5303188%" id="linearGradient-13">
            <stop stop-color="#EEEEEE" offset="0%"></stop>
            <stop stop-color="#C0C0C0" offset="100%"></stop>
        </linearGradient>
        <linearGradient x1="40.0021662%" y1="41.6451098%" x2="56.7786851%" y2="48.7560964%" id="linearGradient-14">
            <stop stop-color="#ACACAC" offset="0%"></stop>
            <stop stop-color="#434343" offset="100%"></stop>
        </linearGradient>
        <linearGradient x1="40.0021662%" y1="42.978615%" x2="56.7786851%" y2="48.954633%" id="linearGradient-15">
            <stop stop-color="#ACACAC" offset="0%"></stop>
            <stop stop-color="#434343" offset="100%"></stop>
        </linearGradient>
        <linearGradient x1="40.0021662%" y1="7.19713512%" x2="56.7786851%" y2="43.6273683%" id="linearGradient-16">
            <stop stop-color="#ACACAC" offset="0%"></stop>
            <stop stop-color="#434343" offset="100%"></stop>
        </linearGradient>
        <linearGradient x1="40.0021662%" y1="11.0285915%" x2="56.7786851%" y2="44.1978082%" id="linearGradient-17">
            <stop stop-color="#ACACAC" offset="0%"></stop>
            <stop stop-color="#434343" offset="100%"></stop>
        </linearGradient>
        <linearGradient x1="45.0823811%" y1="0%" x2="53.3342213%" y2="42.5558351%" id="linearGradient-18">
            <stop stop-color="#ACACAC" offset="0%"></stop>
            <stop stop-color="#434343" offset="100%"></stop>
        </linearGradient>
        <linearGradient x1="43.3156195%" y1="0%" x2="54.5321128%" y2="42.5558351%" id="linearGradient-19">
            <stop stop-color="#ACACAC" offset="0%"></stop>
            <stop stop-color="#434343" offset="100%"></stop>
        </linearGradient>
        <linearGradient x1="43.0517488%" y1="0%" x2="54.7110212%" y2="42.5558351%" id="linearGradient-20">
            <stop stop-color="#ACACAC" offset="0%"></stop>
            <stop stop-color="#434343" offset="100%"></stop>
        </linearGradient>
    </defs>
    <g id="Splash-cropped-Copy" stroke="none" stroke-width="1" fill="none" fill-rule="evenodd">
        <rect fill="#FFFFFF" x="0" y="0" width="720" height="1136"></rect>
        <g id="Oval" stroke-linecap="round" stroke-linejoin="round">
            <use fill="#FFFFFF" fill-rule="evenodd" xlink:href="#path-1"></use>
            <use fill="black" fill-opacity="1" filter="url(#filter-2)" xlink:href="#path-1"></use>
            <path stroke="#ACACAC" stroke-width="1" d="M299.973759,552.165392 C296.046631,552.165392 296.10328,552.164828 281.210626,552.332664 C260.44951,552.566637 246.883947,552.581478 232.292524,552.247822 C196.891332,551.438317 172.295534,548.622023 160.843918,542.918744 C134.198124,529.648267 119.560917,507.318105 114.084078,475.656639 C109.818731,450.998777 110.852118,424.806691 116.085173,379.630084 C121.563046,332.339972 142.703292,288.454523 175.221141,256.343846 C208.832405,223.153445 252.463823,204.5 299.973759,204.5 C347.397213,204.5 390.206894,223.220076 422.715322,256.570552 C453.976057,288.641017 473.827569,332.476622 478.322794,379.640177 C480.910486,406.790037 481.803701,417.76817 482.286625,431.548978 C482.924673,449.756425 482.158689,464.844197 479.642364,478.139439 C473.72062,509.427543 457.887171,530.668591 428.39651,542.932848 C418.602223,547.00599 396.509971,549.572381 365.420464,550.95925 C344.402729,551.896828 324.518887,552.165392 299.973759,552.165392 Z"></path>
        </g>
        <g id="Combined-Shape">
            <use fill="black" fill-opacity="1" filter="url(#filter-4)" xlink:href="#path-3"></use>
            <use fill="#FFFFFF" fill-rule="evenodd" xlink:href="#path-3"></use>
            <use fill="black" fill-opacity="1" filter="url(#filter-5)" xlink:href="#path-3"></use>
        </g>
        <g id="Combined-Shape">
            <use fill="black" fill-opacity="1" filter="url(#filter-7)" xlink:href="#path-6"></use>
            <use fill="#FFFFFF" fill-rule="evenodd" xlink:href="#path-6"></use>
            <use fill="black" fill-opacity="1" filter="url(#filter-8)" xlink:href="#path-6"></use>
        </g>
        <g id="Combined-Shape">
            <use fill="black" fill-opacity="1" filter="url(#filter-10)" xlink:href="#path-9"></use>
            <use fill="#FFFFFF" fill-rule="evenodd" xlink:href="#path-9"></use>
            <use fill="black" fill-opacity="1" filter="url(#filter-11)" xlink:href="#path-9"></use>
        </g>
        <path d="M598.825458,738.370161 C599.784021,738.36074 600.734916,738.877282 601.580595,739.700693 C602.293493,740.394818 602.931622,741.307013 603.436545,742.306029 C604.936175,745.273122 597.689495,751.780308 595.542158,751.554709 C593.826775,751.374492 592.463004,750.664444 591.837082,749.258601 C590.905373,747.165948 591.841779,744.055426 593.878324,741.610742 C591.105478,742.393434 588.172304,742.062868 586.59952,740.544049 C585.943834,739.91086 585.589155,739.133504 585.480399,738.270627 C585.10097,738.687622 584.736603,738.964367 584.419627,739.046379 C582.803165,739.46461 581.293935,739.275256 580.174229,738.193969 C579.2422,737.293919 578.710527,735.901865 578.574656,734.334626 C572.950883,737.77165 565.088534,737.775921 561.373534,734.188387 C559.957335,732.82078 559.315963,731.097425 559.276936,729.202202 C558.99895,729.403092 558.733539,729.541749 558.486425,729.608651 C555.818467,730.330949 553.339565,730.050589 551.520044,728.293498 C549.596923,726.436362 548.752227,723.259634 548.957119,719.831485 C541.338086,723.192399 531.945527,722.647092 527.212021,718.075998 C525.041709,715.980152 524.133803,713.311257 524.188001,710.389581 C523.50798,711.032373 522.856007,711.4549 522.267418,711.596403 C518.409288,712.523943 514.780436,712.000966 512.044921,709.359309 C508.724831,706.153136 507.398323,700.480405 508.0767,694.693111 C505.915832,695.405723 503.227427,695.693531 500.572524,695.658723 C504.101164,699.475831 506.796766,704.215808 505.272276,707.262988 C504.271405,709.263549 503.028206,711.101225 501.659479,712.513674 C499.441972,714.802016 496.894982,715.974221 494.515211,714.914679 C489.981884,712.896312 486.430876,708.74483 484.633365,704.365977 C477.961602,709.855256 465.602014,711.435788 456.73795,706.522357 C456.067387,706.150658 455.505383,705.682036 455.043603,705.131527 C445.706252,713.496581 426.563434,715.138309 413.725342,706.801155 C409.704118,704.189742 408.85136,699.140677 410.028234,693.40761 C400.004972,697.414215 386.27384,696.944859 376.327252,690.485469 C372.124726,687.756316 371.382815,682.364748 372.801601,676.312463 C373.454298,673.528175 374.564276,670.604055 376.004975,667.734991 C375.669147,667.658634 375.334103,667.571975 374.999978,667.475309 C373.635318,672.179082 370.855797,675.916425 366.336612,677.928496 C353.969612,683.434639 333.257857,673.935615 326.225404,658.140469 C324.187272,653.562749 326.501513,648.636926 330.987716,644.333779 C331.486755,643.855103 332.01267,643.384132 332.56246,642.922202 C331.250342,643.147979 329.882048,643.196031 328.459947,643.046562 C314.99674,641.631522 301.809345,623.049249 303.616636,605.854025 C304.117825,601.085531 308.22943,598.033491 313.87192,596.479336 C305.751543,589.367504 299.935939,576.919893 301.175641,565.124916 C301.699427,560.141429 306.16653,557.03266 312.203269,555.549128 C315.929366,554.633437 320.253465,554.336931 324.617381,554.600941 C332.289976,555.06512 338.304928,567.065016 340.923074,578.048265 C344.765935,566.478054 355.367126,550.671003 364.833099,552.082358 C369.257769,552.742066 373.524676,553.941523 377.062631,555.620697 C382.794557,558.341166 386.613125,562.320793 386.089339,567.304281 C384.977724,577.880592 378.076246,587.776879 369.722048,593.491561 C372.443597,594.158295 375.015819,595.0387 377.287508,596.116882 C383.019434,598.837351 386.838002,602.816978 386.314216,607.800466 C385.943615,611.326497 384.92948,614.776944 383.432525,618.022054 C383.940992,617.957191 384.444196,617.90449 384.941058,617.864424 C390.760416,617.395168 395.709832,618.659249 398.050923,622.430645 C399.428413,620.981686 400.859092,619.673297 402.310903,618.554841 C407.337098,614.682724 412.616566,613.087068 416.819092,615.816221 C425.737991,621.608222 431.422442,632.250304 432.721535,642.28836 C434.551157,640.166134 436.503368,638.273962 438.49536,636.739357 C443.521556,632.867241 448.801023,631.271585 453.003549,634.000737 C461.18921,639.316567 466.650381,648.717792 468.497311,657.987921 C469.573293,656.605065 470.724861,655.355704 471.914466,654.307576 C475.251555,651.367358 478.887964,650.01068 481.994832,651.732845 C491.659885,657.090272 496.979717,670.063327 494.487892,678.780422 C499.212969,676.480279 505.631183,675.958138 510.829354,678.272513 C512.283754,678.920054 513.160482,680.171776 513.57292,681.773023 C513.78427,681.531118 514.001545,681.294412 514.224743,681.063284 C516.438124,678.771261 519.88368,678.952874 523.475375,680.559349 C525.6923,681.550924 527.964901,683.085344 530.03779,684.915984 C533.682323,688.134598 531.981331,696.485492 528.98458,703.005199 C535.433399,698.706119 546.912317,694.915416 551.080183,699.306377 C553.028365,701.35884 554.686435,703.620225 555.793055,705.83816 C556.073817,706.400875 556.319082,706.960794 556.524583,707.513795 C557.60571,707.458634 558.791362,707.727351 559.993951,708.235363 C561.493659,708.868887 563.019708,709.874556 564.402226,711.088328 C566.739656,713.140458 565.581116,718.564793 563.533276,723.023819 C568.189792,720.202107 575.523736,717.963546 578.267216,720.857077 C579.630182,722.294589 580.787895,723.880598 581.557418,725.438445 C581.644408,725.61455 581.726437,725.790295 581.803241,725.965425 C582.71667,725.416052 583.926842,725.536997 585.171833,726.075324 C586.088467,726.471671 587.023976,727.09427 587.873824,727.842172 C589.134814,728.951896 588.778771,731.618571 587.854355,734.07484 C590.609301,732.307334 595.079937,730.796762 596.6763,732.487872 C597.453405,733.311101 598.108274,734.224311 598.536369,735.126555 C599.093349,736.300431 599.266455,737.455743 598.825458,738.370161 Z M487.981481,686.24943 C487.272632,686.542545 486.525078,686.77512 485.745156,686.95055 C486.598361,687.485839 487.215691,688.054252 487.527017,688.637033 C487.81939,689.184335 488.07988,689.735236 488.306009,690.288312 C488.341208,690.273529 488.376547,690.258932 488.412025,690.244521 C487.935992,688.928954 487.768154,687.58601 487.981481,686.24943 Z M342.668986,636.767285 C343.950074,636.411121 345.345398,636.3587 346.814755,636.558357 C345.863141,635.939876 344.977533,635.216298 344.156848,634.399637 C343.947738,635.015334 343.685289,635.530666 343.367183,635.928904 C343.138319,636.215418 342.905575,636.494978 342.668986,636.767285 Z M353.740961,638.957826 C357.159748,640.743362 360.643066,643.327714 363.799227,646.207525 C363.687886,643.204247 363.789936,640.116639 364.143812,637.167194 C360.6613,638.616933 357.103717,639.286444 353.740961,638.957826 Z M467.958194,672.960732 C467.443137,674.51105 466.762868,675.959582 465.910248,677.272501 C463.834316,680.469155 460.952973,682.528814 457.56454,683.638999 C458.018196,684.104837 458.358211,684.572637 458.568626,685.036868 C458.656662,685.231099 458.742007,685.425432 458.824611,685.619834 C462.915091,682.980662 470.485613,682.854836 476.856565,683.990889 C473.668505,681.238985 470.232399,677.123576 467.958193,672.960735 Z M398.627218,651.778857 C397.555781,654.522023 396.196574,657.067723 394.596253,659.294948 C398.337883,659.45934 402.247078,660.057256 405.886997,660.937324 C403.399876,658.4176 400.853146,655.227846 398.62721,651.778846 L398.627218,651.778857 Z M429.524709,659.390389 C426.930909,663.200373 423.15354,665.328441 418.733596,666.114653 C419.929783,666.971852 420.77692,667.852762 421.170536,668.721182 C422.305637,671.225515 422.993283,673.746711 423.128677,676.214541 C427.909999,675.186119 433.931184,675.454471 439.658968,676.488307 C435.521654,671.646647 431.559081,665.316176 429.524709,659.390389 Z M353.0327,598.407327 C348.460419,597.82593 344.849407,595.426393 342.142274,591.845126 C341.921562,593.300097 341.521258,594.454826 340.926188,595.199795 C339.210136,597.348121 337.275918,599.105417 335.138533,600.346425 C338.225539,604.139721 340.719996,609.626465 342.399201,615.19931 C344.83485,609.314869 348.676371,602.910216 353.0327,598.407327 Z M595.097664,756.430237 C594.471742,755.024393 594.856615,753.535799 595.870503,752.140432 C597.139699,750.393695 606.824456,749.36252 608.025987,752.462335 C608.430541,753.506038 608.681443,754.590637 608.720257,755.584884 C608.78314,757.195688 608.289335,758.569335 606.99034,759.147684 C602.50824,761.143244 596.507122,759.595932 595.097664,756.430237 Z M611.136477,772.120685 C607.68968,772.263209 602.846945,771.171041 602.113574,768.554151 C601.751236,767.261219 601.547536,765.948456 601.555751,764.779829 C601.569059,762.886507 602.138602,761.371512 603.490934,760.932112 C608.157074,759.415991 614.201795,762.315268 615.486793,766.270086 C616.057444,768.026369 615.59345,769.69547 614.492557,771.141241 C614.487702,771.147616 614.482742,771.153962 614.477676,771.160279 C616.026722,771.550847 617.19469,772.384582 617.643679,773.766427 C618.714511,777.062108 615.290165,782.227517 610.624025,783.743638 C609.271693,784.183037 607.985575,783.492639 606.954468,782.253501 C606.318031,781.48866 605.778749,780.514759 605.381017,779.468438 C604.554418,777.293884 608.168243,773.843058 611.136477,772.120685 Z M605.599387,791.819216 C605.237166,788.372914 609.66063,784.032344 614.540024,783.519499 C615.95416,783.370867 617.068632,784.313577 617.819575,785.740016 C618.283085,786.620466 618.608097,787.685208 618.779595,788.791358 C619.288946,792.076642 610.386113,796.025997 608.413588,795.147876 C606.837852,794.446397 605.760245,793.349673 605.599387,791.819216 Z M606.484228,799.647423 C606.32337,798.116965 607.149407,796.82016 608.544864,795.806396 C610.291713,794.537353 619.821114,796.549402 620.005943,799.868795 C620.068175,800.986429 619.971637,802.095478 619.701312,803.053057 C619.263351,804.604455 618.369234,805.758276 616.955098,805.906908 C612.075705,806.419752 606.846448,803.093724 606.484228,799.647423 Z" id="Combined-Shape" stroke="#BABABA" fill="url(#linearGradient-12)"></path>
        <path d="M304.293716,628.37204 C302.373341,631.667733 300.027517,634.616506 297.413541,637.003129 C301.412605,638.355382 305.516413,640.369249 309.171205,642.62475 C307.141613,638.586832 305.353268,633.485304 304.293716,628.37204 Z M309.441446,606.057984 C312.497235,603.989374 315.690136,602.305977 318.761984,601.216852 C324.730115,599.100849 330.24131,599.228016 333.40229,603.131501 C344.309061,616.600242 343.152986,639.5949 332.414543,648.290719 C328.717217,651.284755 324.365989,652.193328 319.804275,651.547832 C320.679359,652.735326 321.215144,653.836658 321.32335,654.784874 C322.032626,661.000313 320.516091,666.578603 315.855889,670.35236 C305.361992,678.85015 282.901469,674.979836 271.994698,661.511096 C268.833718,657.60761 269.780788,652.250643 272.985743,646.938428 C274.032412,645.203575 275.319891,643.473494 276.783739,641.800371 C274.393372,640.687063 272.204681,638.978958 270.243067,636.822373 C270.0112,636.56746 269.802499,636.258188 269.616491,635.899699 C267.348276,638.114535 264.541677,639.61639 261.160413,640.15193 C247.512739,642.313509 229.671035,627.913889 226.980309,610.925314 C226.200488,606.001717 229.797902,601.847577 235.366349,598.844 C237.656345,597.608794 240.279689,596.568173 243.069024,595.748645 C234.302209,590.555296 226.736765,580.970785 225.059372,570.380141 C224.279551,565.456543 227.876965,561.302404 233.445411,558.298827 C236.88246,556.44491 241.070435,555.029335 245.443504,554.141721 C254.406849,552.322407 265.226662,566.150538 270.011321,577.244841 C272.348103,566.642194 277.717526,555.512275 285.129156,554.664368 C289.56248,554.157186 293.982917,554.209322 297.824636,554.910396 C304.0487,556.046223 308.753744,558.885382 309.533565,563.808979 C311.395172,575.562702 305.97645,588.378914 297.940499,595.877121 C303.970277,597.059316 308.495741,599.8817 309.259179,604.701858 C309.330547,605.152458 309.391216,605.60462 309.441446,606.057984 Z M259.3613,599.587002 C263.746723,603.567324 267.772848,609.342158 270.555609,614.852329 C272.015948,609.609926 274.193556,604.511323 276.968502,600.865427 C274.613028,599.751374 272.454524,598.059099 270.517453,595.929495 C270.010109,595.371724 269.613672,594.553698 269.32321,593.529277 C266.842604,596.711571 263.545163,598.892772 259.3613,599.587002 Z" id="Combined-Shape" stroke="#B9B9B9" fill="url(#linearGradient-13)"></path>
        <path d="M175.825616,547 C154.878476,585.048655 143.427053,610.46052 141.471347,623.235594 C138.537788,642.398205 149.877488,653.256422 159.425203,661.532708 C168.972919,669.808995 164.619794,672.644968 198.471145,672.644968 C232.322496,672.644968 225.036821,668.789104 269.403219,661.532708 C313.769616,654.276312 317.393716,650.093137 357.735673,646.596279 C398.077631,643.099422 401.12253,642.835166 441.719303,646.596279 C482.316076,650.357393 488.226844,646.596279 518.95677,661.532708 C539.443387,671.490327 557.791131,692.312758 574,724" id="tentacle-7" stroke="url(#linearGradient-14)"></path>
        <path d="M195.422795,552 C175.423508,574.24553 161.585217,588.331243 153.90792,594.257139 C133.729415,609.832376 127.085786,594.257139 118.793408,618.8971 C112.48796,637.633099 117.546411,660.402009 127.085786,668.544273 C136.62516,676.686538 182.947736,690.434232 216.769513,690.434232 C250.591291,690.434232 261.572375,675.683163 305.900013,668.544273 C350.227651,661.405384 334.617891,657.289949 374.924605,653.849718 C415.231319,650.409487 418.273558,650.14951 458.834865,653.849718 C499.396172,657.549926 505.301776,653.849718 536.004856,668.544273 C556.473576,678.340644 574.805291,698.825886 591,730" id="tentacle-6" stroke="url(#linearGradient-15)"></path>
        <path d="M270,552 C271.831238,594.011059 281.090178,619.769665 297.776821,629.275816 C322.806786,643.535043 322.806786,634.400846 369.920511,643.535043 C417.034235,652.66924 429.020859,652.20122 464.205461,661.542254 C499.390062,670.883287 501.900654,668.288335 532.537315,686.707595 C563.173976,705.126855 574.807922,702.897624 586.130771,734.845736 C597.453619,766.793848 586.90038,785.596863 576.107687,809.644069 C568.912557,825.67554 555.175621,838.794183 534.896876,849" id="tentacle-5" stroke="url(#linearGradient-16)"></path>
        <path d="M249.909882,552 C270.286244,575.428953 298.287358,597.345836 333.913223,617.750649 C387.35202,648.357868 412.794889,617.750649 449.621666,666.969311 C486.448443,716.187972 510.860052,716.187972 544.10841,745.040229 C577.356769,773.892486 596.860404,818.577835 585.969725,865.756428 C575.079045,912.935021 544.10841,936.318637 497.770225,945.77797 C451.43204,955.237304 364.119293,947.067615 261.086669,955.094216 C158.054046,963.120817 103.312859,958.991476 55.954472,980.196961 C24.3822142,994.33395 5.73072355,1024.93496 0,1072" id="tentacle-4" stroke="url(#linearGradient-17)"></path>
        <path d="M414.308118,547 C448.66679,577.238142 478.578099,602.410565 504.042047,622.517271 C542.237967,652.677328 563.629084,651.892744 603.223458,683.435866 C642.817832,714.978987 662.3196,730.315619 670.855879,770.360073 C679.392158,810.404527 670.855879,835.1476 641.449998,862.760003 C612.044116,890.372407 597.227391,897.260458 536.319596,912.203171 C495.714399,922.16498 453.941201,924.529613 411,919.297072" id="tentacle-3" stroke="url(#linearGradient-18)"></path>
        <path d="M387.18874,549 C441.790108,588.404947 479.996012,619.128446 501.806454,641.170497 C534.522116,674.233573 546.444754,691.933033 554.140532,724.71962 C561.83631,757.506207 567.080231,788.251794 554.140532,839.029734 C541.200832,889.807675 535.132246,894.432381 501.806454,930.088897 C468.480661,965.745414 310.948168,981.754607 257.750648,999.287425 C204.553129,1016.82024 171.079499,1033.98384 153.792996,1044.78703 C142.26866,1051.98916 133.337662,1064.06015 127,1081" id="tentacle-2" stroke="url(#linearGradient-19)"></path>
        <path d="M426.336212,545 C500.998627,594.398663 549.356675,630.227211 571.410356,652.485642 C604.490879,685.87329 610.084133,684.163236 623.828757,736.058836 C637.573382,787.954436 631.452252,806.740427 623.828757,850.401883 C616.205263,894.063338 603.969181,914.564186 571.410356,941.48728 C538.851532,968.410373 491.118722,978.209385 410.783435,998.008746 C330.448148,1017.80811 277.54029,1011.5095 247.257826,1021.37762 C227.069516,1027.95636 209.983574,1043.49716 196,1068" id="tentacle-1" stroke="url(#linearGradient-20)"></path>
    </g>
</svg>