<?xml version="1.0" encoding="UTF-8"?>
<svg width="84px" height="101px" viewBox="0 0 84 101" version="1.1" xmlns="http://www.w3.org/2000/svg" xmlns:xlink="http://www.w3.org/1999/xlink">
    <!-- Generator: Sketch 53.2 (72643) - https://sketchapp.com -->
    <title>Tentacles</title>
    <desc>Created with Sketch.</desc>
    <g id="Tentacles" stroke="none" stroke-width="1" fill="none" fill-rule="evenodd">
        <rect fill="#FFFFFF" x="0" y="0" width="84" height="101"></rect>
        <path d="M40,61 C40,63.2 41.575,65 43.5,65 C45.425,65 47,63.2 47,61 L40,61 Z" id="Path" fill="#000000" fill-rule="nonzero"></path>
        <path d="M60,58 L27,58 L27.0018333,57.9981875 C30.5218333,54.5181875 32.5,49.7984375 32.5,44.8756875 L32.5,43.5 C32.5,38.744 35.5928333,34.7111875 39.8956667,33.234 C39.8626667,33.0364375 39.8333333,32.8334375 39.8333333,32.625 C39.8333333,30.624 41.476,29 43.5,29 C45.524,29 47.1666667,30.624 47.1666667,32.625 C47.1666667,32.8334375 47.1373333,33.0364375 47.1043333,33.234 C51.4053333,34.7111875 54.5,38.744 54.5,43.5 L54.5,44.8756875 C54.5,49.7984375 56.4781667,54.5181875 59.9981667,57.9981875 L60,58 Z" id="Path" fill="#000000" fill-rule="nonzero"></path>
        <path d="M8.61435221,62.121579 C8.31336356,64.5170674 8.31336356,65.7148116 9.06583519,67.9605819 C9.21632952,68.1103 9.06583519,68.260018 9.06583519,68.260018 C8.91534086,69.0086081 8.76484654,69.4577622 8.61435221,70.2063523 C8.31336356,70.5057883 8.01237491,70.8052244 7.71138626,71.4040965 C7.10940896,72.6018407 6.50743165,74.0990209 6.95891463,75.7459192 C7.10940896,76.1950733 7.41039761,76.4945093 7.86188058,76.9436634 C8.01237491,77.0933814 8.01237491,77.0933814 8.16286924,77.2430994 C8.31336356,79.1894337 8.76484654,80.836332 9.51731817,82.1837942 C9.36682384,83.2318204 9.21632952,84.2798466 9.96880114,85.3278727 C10.1192955,85.4775908 10.2697898,85.6273088 10.4202841,85.7770268 C11.1727558,86.5256169 12.226216,86.675335 13.2796763,86.825053 C13.8816536,87.4239251 14.7846196,88.0227972 15.5370912,88.4719512 C23.3627961,93.8618001 30.8875124,86.974771 28.6300975,84.7290006 C28.6300975,84.7290006 28.6300975,84.7290006 28.6300975,84.7290006 C26.523177,82.9323844 23.2123018,89.5199774 18.0954947,84.4295646 C17.4935174,83.8306925 16.7410458,82.7826663 15.9885742,81.7346402 C9.66781249,72.1526866 19.600438,69.4577622 28.7805919,34.8728986 C32.2419614,21.5479944 33.1449273,10.4688607 32.6934443,2.23436932 C29.9845465,2.53380537 27.4261429,2.0846513 25.3192224,1.4857792 C20.6538983,4.92929376 15.3865969,4.48013969 11.7747331,2.98295944 C11.1727558,3.58183154 10.7212728,4.33042166 10.4202841,4.92929376 C10.1192955,6.12703795 10.4202841,6.72591005 10.8717671,7.17506412 C11.7747331,8.07337227 13.7311593,8.22309029 14.6341252,9.12139843 C15.0856082,9.57055251 15.2361025,10.0197066 14.9351139,10.9180147 C14.4836309,12.2654769 12.9786877,11.9660409 13.2796763,13.7626572 C13.2796763,14.3615293 13.4301706,14.8106834 13.7311593,15.1101194 C14.3331366,15.7089915 15.5370912,15.7089915 16.2895628,16.4575816 C16.4400572,16.6072996 16.7410458,16.9067357 16.8915401,17.0564537 C19.148955,19.3022241 15.9885742,21.5479944 14.4836309,23.0451747 C13.4301706,24.0932009 12.677699,25.7400991 13.129182,27.3869974 C13.4301706,27.9858695 13.580665,28.4350236 14.0321479,28.8841776 C14.4836309,29.3333317 15.0856082,29.6327677 15.5370912,30.0819218 C15.6875855,30.2316398 15.9885742,30.5310759 16.1390685,30.6807939 C17.0420345,32.1779742 16.8915401,33.2260003 15.8380798,34.5734625 C14.4836309,35.9209248 13.2796763,36.5197969 12.8281933,38.7655672 C12.3767104,40.7119015 12.677699,41.9096457 13.580665,43.406826 C14.3331366,44.7542882 14.6341252,45.6525963 13.7311593,47.1497766 C12.9786877,48.4972388 11.6242387,48.9463929 11.0222614,50.1441371 C10.1192955,52.2401894 11.1727558,52.6893435 11.9252274,54.3362417 C12.5272047,55.833422 11.9252274,56.7317301 10.8717671,57.7797563 C10.4202841,58.2289104 9.21632952,58.8277825 8.76484654,59.2769365 C8.61435221,60.0255267 8.61435221,61.2232708 8.61435221,62.121579 Z" id="Path" fill="#000000" fill-rule="nonzero" transform="translate(19.801282, 45.985779) rotate(171.000000) translate(-19.801282, -45.985779) "></path>
        <path d="M73.5802495,32.3957905 C73.4216803,32.2447269 73.5802495,32.0936632 73.4216803,31.9425995 C70.4088645,32.0936632 67.0789102,31.6404721 63.7489558,29.3745168 C62.004694,29.8277079 59.9432937,30.280899 57.7233242,30.280899 C56.1376317,40.8553569 59.1504475,45.2362038 61.6875555,52.1851333 C65.1760791,61.5510818 70.2502952,69.7085208 70.091726,75.6000045 C69.9331567,79.3765967 68.3474642,85.7212715 68.9817412,86.3255262 C69.2988797,86.6276536 70.091726,85.5702078 71.8359878,82.095743 C73.1045418,81.1893609 74.3730958,79.9808514 75.1659421,78.9234056 C76.4344961,77.1106414 75.6416498,75.4489409 76.1173576,73.1829856 C76.4344961,72.2766035 77.0687731,71.9744761 77.2273424,70.9170303 C77.3859116,69.5574571 77.2273424,68.8021387 76.4344961,67.7446929 C75.4830806,66.234056 74.5316651,64.4212918 76.4344961,63.2127823 C77.2273424,60.9468271 76.2759269,59.4361902 75.0073728,58.2276807 C74.5316651,57.7744897 74.0559573,57.3212986 73.5802495,57.1702349 C73.4216803,57.0191712 73.263111,56.8681076 73.1045418,56.7170439 C71.5188493,55.206407 72.1531263,53.6957702 73.4216803,51.5808786 C74.8488036,49.3149233 75.4830806,47.5021591 73.4216803,45.2362038 C73.4216803,45.2362038 73.263111,45.0851401 73.263111,45.0851401 C72.628834,44.4808854 71.6774185,44.178758 71.0431415,43.5745033 C70.726003,43.2723759 70.5674337,43.1213122 70.5674337,42.8191848 C70.091726,41.4596117 71.36028,40.8553569 71.5188493,39.4957838 C72.4702648,38.891529 73.1045418,37.6830195 74.0559573,37.0787648 C74.6902343,35.2660006 74.2145266,34.2085548 73.5802495,32.3957905 Z" id="Path" fill="#000000" fill-rule="nonzero" transform="translate(67.282599, 57.874517) rotate(205.000000) translate(-67.282599, -57.874517) "></path>
        <g id="noun_Alert_2281299" transform="translate(27.000000, 90.000000)"></g>
    </g>
</svg>